<svg viewBox="0 0 16 16" fill="none" xmlns="http://www.w3.org/2000/svg">
<g clip-path="url(#clip0)">
<path fill-rule="evenodd" clip-rule="evenodd" d="M13.5 7C13.7319 7 13.9333 6.84056 13.9866 6.61488C14.0399 6.38919 13.931 6.15649 13.7236 6.05279L1.72361 0.052787C1.56861 -0.0247102 1.38454 -0.0164282 1.23713 0.0746751C1.08973 0.165778 1 0.326712 1 0.500001L1 6.5C1 6.77614 1.22386 7 1.5 7L13.5 7Z" fill="#005FB7"/>
<path fill-rule="evenodd" clip-rule="evenodd" d="M13.9866 8.38512C13.9333 8.15944 13.7318 8 13.5 8L1.49995 8C1.22381 8 0.999952 8.22386 0.999952 8.5L0.999951 14.5C0.999951 14.6733 1.08968 14.8342 1.23709 14.9253C1.38449 15.0164 1.56856 15.0247 1.72356 14.9472L13.7236 8.94721C13.931 8.84351 14.0399 8.61081 13.9866 8.38512ZM1.99995 13.691L1.99995 9L11.3819 9L1.99995 13.691Z" fill="black" fill-opacity="0.8956"/>
</g>
<defs>
<clipPath id="clip0">
<rect width="16" height="16" fill="white"/>
</clipPath>
</defs>
</svg>
